<svg width="71" height="21" viewBox="0 0 71 21" fill="none" xmlns="http://www.w3.org/2000/svg">
<g filter="url(#filter0_d_0_1111)">
<path d="M10.8281 0.625H12.3281V8.32031C12.3281 9.17448 12.138 9.88542 11.7578 10.4531C11.3776 11.0208 10.8724 11.4479 10.2422 11.7344C9.61719 12.0156 8.9375 12.1562 8.20312 12.1562C7.43229 12.1562 6.73438 12.0156 6.10938 11.7344C5.48958 11.4479 4.9974 11.0208 4.63281 10.4531C4.27344 9.88542 4.09375 9.17448 4.09375 8.32031V0.625H5.58594V8.32031C5.58594 8.91406 5.69531 9.40365 5.91406 9.78906C6.13281 10.1745 6.4375 10.4609 6.82812 10.6484C7.22396 10.8359 7.68229 10.9297 8.20312 10.9297C8.72917 10.9297 9.1875 10.8359 9.57812 10.6484C9.97396 10.4609 10.2812 10.1745 10.5 9.78906C10.7188 9.40365 10.8281 8.91406 10.8281 8.32031V0.625ZM14.4688 0H15.9219V10.3594L15.7969 12H14.4688V0ZM21.6328 7.70312V7.86719C21.6328 8.48177 21.5599 9.05208 21.4141 9.57812C21.2682 10.099 21.0547 10.5521 20.7734 10.9375C20.4922 11.3229 20.1484 11.6224 19.7422 11.8359C19.3359 12.0495 18.8698 12.1562 18.3438 12.1562C17.8073 12.1562 17.3359 12.0651 16.9297 11.8828C16.5286 11.6953 16.1901 11.4271 15.9141 11.0781C15.638 10.7292 15.4167 10.3073 15.25 9.8125C15.0885 9.31771 14.9766 8.76042 14.9141 8.14062V7.42188C14.9766 6.79688 15.0885 6.23698 15.25 5.74219C15.4167 5.2474 15.638 4.82552 15.9141 4.47656C16.1901 4.1224 16.5286 3.85417 16.9297 3.67188C17.3307 3.48438 17.7969 3.39062 18.3281 3.39062C18.8594 3.39062 19.3307 3.49479 19.7422 3.70312C20.1536 3.90625 20.4974 4.19792 20.7734 4.57812C21.0547 4.95833 21.2682 5.41406 21.4141 5.94531C21.5599 6.47135 21.6328 7.05729 21.6328 7.70312ZM20.1797 7.86719V7.70312C20.1797 7.28125 20.1406 6.88542 20.0625 6.51562C19.9844 6.14062 19.8594 5.8125 19.6875 5.53125C19.5156 5.24479 19.2891 5.02083 19.0078 4.85938C18.7266 4.69271 18.3802 4.60938 17.9688 4.60938C17.6042 4.60938 17.2865 4.67188 17.0156 4.79688C16.75 4.92188 16.5234 5.09115 16.3359 5.30469C16.1484 5.51302 15.9948 5.7526 15.875 6.02344C15.7604 6.28906 15.6745 6.5651 15.6172 6.85156V8.73438C15.7005 9.09896 15.8359 9.45052 16.0234 9.78906C16.2161 10.1224 16.4714 10.3958 16.7891 10.6094C17.112 10.8229 17.5104 10.9297 17.9844 10.9297C18.375 10.9297 18.7083 10.8516 18.9844 10.6953C19.2656 10.5339 19.4922 10.3125 19.6641 10.0312C19.8411 9.75 19.9714 9.42448 20.0547 9.05469C20.138 8.6849 20.1797 8.28906 20.1797 7.86719ZM26.9688 12.1562C26.3802 12.1562 25.8464 12.0573 25.3672 11.8594C24.8932 11.6562 24.4844 11.3724 24.1406 11.0078C23.8021 10.6432 23.5417 10.2109 23.3594 9.71094C23.1771 9.21094 23.0859 8.66406 23.0859 8.07031V7.74219C23.0859 7.05469 23.1875 6.44271 23.3906 5.90625C23.5938 5.36458 23.8698 4.90625 24.2188 4.53125C24.5677 4.15625 24.9635 3.8724 25.4062 3.67969C25.849 3.48698 26.3073 3.39062 26.7812 3.39062C27.3854 3.39062 27.9062 3.49479 28.3438 3.70312C28.7865 3.91146 29.1484 4.20312 29.4297 4.57812C29.7109 4.94792 29.9193 5.38542 30.0547 5.89062C30.1901 6.39062 30.2578 6.9375 30.2578 7.53125V8.17969H23.9453V7H28.8125V6.89062C28.7917 6.51562 28.7135 6.15104 28.5781 5.79688C28.4479 5.44271 28.2396 5.15104 27.9531 4.92188C27.6667 4.69271 27.276 4.57812 26.7812 4.57812C26.4531 4.57812 26.151 4.64844 25.875 4.78906C25.599 4.92448 25.362 5.1276 25.1641 5.39844C24.9661 5.66927 24.8125 6 24.7031 6.39062C24.5938 6.78125 24.5391 7.23177 24.5391 7.74219V8.07031C24.5391 8.47135 24.5938 8.84896 24.7031 9.20312C24.8177 9.55208 24.9818 9.85938 25.1953 10.125C25.4141 10.3906 25.6771 10.599 25.9844 10.75C26.2969 10.901 26.651 10.9766 27.0469 10.9766C27.5573 10.9766 27.9896 10.8724 28.3438 10.6641C28.6979 10.4557 29.0078 10.1771 29.2734 9.82812L30.1484 10.5234C29.9661 10.7995 29.7344 11.0625 29.4531 11.3125C29.1719 11.5625 28.8255 11.7656 28.4141 11.9219C28.0078 12.0781 27.526 12.1562 26.9688 12.1562ZM33.3906 4.875V12H31.9453V3.54688H33.3516L33.3906 4.875ZM36.0312 3.5L36.0234 4.84375C35.9036 4.81771 35.7891 4.80208 35.6797 4.79688C35.5755 4.78646 35.4557 4.78125 35.3203 4.78125C34.987 4.78125 34.6927 4.83333 34.4375 4.9375C34.1823 5.04167 33.9661 5.1875 33.7891 5.375C33.612 5.5625 33.4714 5.78646 33.3672 6.04688C33.2682 6.30208 33.2031 6.58333 33.1719 6.89062L32.7656 7.125C32.7656 6.61458 32.8151 6.13542 32.9141 5.6875C33.0182 5.23958 33.1771 4.84375 33.3906 4.5C33.6042 4.15104 33.875 3.88021 34.2031 3.6875C34.5365 3.48958 34.9323 3.39062 35.3906 3.39062C35.4948 3.39062 35.6146 3.40365 35.75 3.42969C35.8854 3.45052 35.9792 3.47396 36.0312 3.5ZM44.8125 10.7734V12H38.7891V10.7734H44.8125ZM39.0938 0.625V12H37.5859V0.625H39.0938ZM44.0156 5.51562V6.74219H38.7891V5.51562H44.0156ZM44.7344 0.625V1.85938H38.7891V0.625H44.7344ZM51.4453 10.5547V6.20312C51.4453 5.86979 51.3776 5.58073 51.2422 5.33594C51.112 5.08594 50.9141 4.89323 50.6484 4.75781C50.3828 4.6224 50.0547 4.55469 49.6641 4.55469C49.2995 4.55469 48.9792 4.61719 48.7031 4.74219C48.4323 4.86719 48.2188 5.03125 48.0625 5.23438C47.9115 5.4375 47.8359 5.65625 47.8359 5.89062H46.3906C46.3906 5.58854 46.4688 5.28906 46.625 4.99219C46.7812 4.69531 47.0052 4.42708 47.2969 4.1875C47.5938 3.94271 47.9479 3.75 48.3594 3.60938C48.776 3.46354 49.2396 3.39062 49.75 3.39062C50.3646 3.39062 50.9062 3.49479 51.375 3.70312C51.849 3.91146 52.2188 4.22656 52.4844 4.64844C52.7552 5.0651 52.8906 5.58854 52.8906 6.21875V10.1562C52.8906 10.4375 52.9141 10.737 52.9609 11.0547C53.013 11.3724 53.0885 11.6458 53.1875 11.875V12H51.6797C51.6068 11.8333 51.5495 11.612 51.5078 11.3359C51.4661 11.0547 51.4453 10.7943 51.4453 10.5547ZM51.6953 6.875L51.7109 7.89062H50.25C49.8385 7.89062 49.4714 7.92448 49.1484 7.99219C48.8255 8.05469 48.5547 8.15104 48.3359 8.28125C48.1172 8.41146 47.9505 8.57552 47.8359 8.77344C47.7214 8.96615 47.6641 9.19271 47.6641 9.45312C47.6641 9.71875 47.724 9.96094 47.8438 10.1797C47.9635 10.3984 48.1432 10.5729 48.3828 10.7031C48.6276 10.8281 48.9271 10.8906 49.2812 10.8906C49.724 10.8906 50.1146 10.7969 50.4531 10.6094C50.7917 10.4219 51.0599 10.1927 51.2578 9.92188C51.4609 9.65104 51.5703 9.38802 51.5859 9.13281L52.2031 9.82812C52.1667 10.0469 52.0677 10.2891 51.9062 10.5547C51.7448 10.8203 51.5286 11.0755 51.2578 11.3203C50.9922 11.5599 50.6745 11.7604 50.3047 11.9219C49.9401 12.0781 49.5286 12.1562 49.0703 12.1562C48.4974 12.1562 47.9948 12.0443 47.5625 11.8203C47.1354 11.5964 46.8021 11.2969 46.5625 10.9219C46.3281 10.5417 46.2109 10.1172 46.2109 9.64844C46.2109 9.19531 46.2995 8.79688 46.4766 8.45312C46.6536 8.10417 46.9089 7.8151 47.2422 7.58594C47.5755 7.35156 47.9766 7.17448 48.4453 7.05469C48.9141 6.9349 49.4375 6.875 50.0156 6.875H51.6953ZM58.7031 3.54688V4.65625H54.1328V3.54688H58.7031ZM55.6797 1.49219H57.125V9.90625C57.125 10.1927 57.1693 10.4089 57.2578 10.5547C57.3464 10.7005 57.4609 10.7969 57.6016 10.8438C57.7422 10.8906 57.8932 10.9141 58.0547 10.9141C58.1745 10.9141 58.2995 10.9036 58.4297 10.8828C58.5651 10.8568 58.6667 10.8359 58.7344 10.8203L58.7422 12C58.6276 12.0365 58.4766 12.0703 58.2891 12.1016C58.1068 12.138 57.8854 12.1562 57.625 12.1562C57.2708 12.1562 56.9453 12.0859 56.6484 11.9453C56.3516 11.8047 56.1146 11.5703 55.9375 11.2422C55.7656 10.9089 55.6797 10.4609 55.6797 9.89844V1.49219ZM65.3203 9.75781C65.3203 9.54948 65.2734 9.35677 65.1797 9.17969C65.0911 8.9974 64.9062 8.83333 64.625 8.6875C64.349 8.53646 63.9323 8.40625 63.375 8.29688C62.9062 8.19792 62.4818 8.08073 62.1016 7.94531C61.7266 7.8099 61.4062 7.64583 61.1406 7.45312C60.8802 7.26042 60.6797 7.03385 60.5391 6.77344C60.3984 6.51302 60.3281 6.20833 60.3281 5.85938C60.3281 5.52604 60.401 5.21094 60.5469 4.91406C60.6979 4.61719 60.9089 4.35417 61.1797 4.125C61.4557 3.89583 61.7865 3.71615 62.1719 3.58594C62.5573 3.45573 62.987 3.39062 63.4609 3.39062C64.138 3.39062 64.7161 3.51042 65.1953 3.75C65.6745 3.98958 66.0417 4.3099 66.2969 4.71094C66.5521 5.10677 66.6797 5.54688 66.6797 6.03125H65.2344C65.2344 5.79688 65.1641 5.57031 65.0234 5.35156C64.888 5.1276 64.6875 4.94271 64.4219 4.79688C64.1615 4.65104 63.8411 4.57812 63.4609 4.57812C63.0599 4.57812 62.7344 4.64062 62.4844 4.76562C62.2396 4.88542 62.0599 5.03906 61.9453 5.22656C61.8359 5.41406 61.7812 5.61198 61.7812 5.82031C61.7812 5.97656 61.8073 6.11719 61.8594 6.24219C61.9167 6.36198 62.0156 6.47396 62.1562 6.57812C62.2969 6.67708 62.4948 6.77083 62.75 6.85938C63.0052 6.94792 63.3307 7.03646 63.7266 7.125C64.4193 7.28125 64.9896 7.46875 65.4375 7.6875C65.8854 7.90625 66.2188 8.17448 66.4375 8.49219C66.6562 8.8099 66.7656 9.19531 66.7656 9.64844C66.7656 10.0182 66.6875 10.3568 66.5312 10.6641C66.3802 10.9714 66.1589 11.237 65.8672 11.4609C65.5807 11.6797 65.237 11.8516 64.8359 11.9766C64.4401 12.0964 63.9948 12.1562 63.5 12.1562C62.7552 12.1562 62.125 12.0234 61.6094 11.7578C61.0938 11.4922 60.7031 11.1484 60.4375 10.7266C60.1719 10.3047 60.0391 9.85938 60.0391 9.39062H61.4922C61.513 9.78646 61.6276 10.1016 61.8359 10.3359C62.0443 10.5651 62.2995 10.7292 62.6016 10.8281C62.9036 10.9219 63.2031 10.9688 63.5 10.9688C63.8958 10.9688 64.2266 10.9167 64.4922 10.8125C64.763 10.7083 64.9688 10.5651 65.1094 10.3828C65.25 10.2005 65.3203 9.99219 65.3203 9.75781Z" fill="white"/>
</g>
<defs>
<filter id="filter0_d_0_1111" x="0.09375" y="0" width="70.6719" height="20.1562" filterUnits="userSpaceOnUse" color-interpolation-filters="sRGB">
<feFlood flood-opacity="0" result="BackgroundImageFix"/>
<feColorMatrix in="SourceAlpha" type="matrix" values="0 0 0 0 0 0 0 0 0 0 0 0 0 0 0 0 0 0 127 0" result="hardAlpha"/>
<feOffset dy="4"/>
<feGaussianBlur stdDeviation="2"/>
<feComposite in2="hardAlpha" operator="out"/>
<feColorMatrix type="matrix" values="0 0 0 0 0 0 0 0 0 0 0 0 0 0 0 0 0 0 0.25 0"/>
<feBlend mode="normal" in2="BackgroundImageFix" result="effect1_dropShadow_0_1111"/>
<feBlend mode="normal" in="SourceGraphic" in2="effect1_dropShadow_0_1111" result="shape"/>
</filter>
</defs>
</svg>
